<?xml version="1.0" encoding="UTF-8"?><svg id="Layer_1" xmlns="http://www.w3.org/2000/svg" viewBox="0 0 1000 1000"><defs><style>.cls-1{fill:#dd6900;}</style></defs><path class="cls-1" d="M421.96,725.98H143.68c-25.48,0-46.13-20.65-46.13-46.13v-371.28c0-25.48,20.65-46.13,46.13-46.13h277.54c25.48,0,46.13,20.65,46.13,46.13v.74c0,25.48-20.65,46.13-46.13,46.13h-185.27c-25.48,0-46.13,20.65-46.13,46.13v.74c0,25.48,20.65,46.13,46.13,46.13h183.8c25.48,0,46.13,20.65,46.13,46.13h0c0,25.48-20.65,46.13-46.13,46.13h-183.8c-25.48,0-46.13,20.65-46.13,46.13v.74c0,25.48,20.65,46.13,46.13,46.13h186.01c25.48,0,46.13,20.65,46.13,46.13h0c0,25.48-20.65,46.13-46.13,46.13Z"/><path class="cls-1" d="M899.78,726.52h-8.93c-13.09,0-25.52-5.74-34.01-15.7l-105.9-124.23c-17.92-21.03-50.44-20.91-68.22.24l-103.96,123.74c-8.49,10.11-21.01,15.94-34.21,15.94h-3.67c-38.44,0-58.94-45.32-33.56-74.19l122.52-139.36c15.31-17.41,14.76-43.63-1.26-60.39l-109.05-114.05c-27.18-28.43-7.03-75.57,32.3-75.57h3.56c12.48,0,24.4,5.22,32.86,14.4l101.33,109.94c17.76,19.27,48.21,19.19,65.87-.16l100.02-109.61c8.47-9.28,20.45-14.57,33.01-14.57h0c39.29,0,59.45,47.06,32.35,75.51l-108.15,113.52c-15.91,16.7-16.5,42.76-1.35,60.16l122.17,140.34c25.17,28.92,4.63,74.02-33.7,74.02Z"/></svg>